# xmcd
#
# Track frame offsets: 
#        150
#        11659
#        24870
#        37880
#        50670
#        62937
#        73930
#        84047
#        94092
#        106817
#        118322
#        130737
#        142742
#        153300
#        164927
#        175575
#        190152
#        201147
#        213435
#        223802
#        234462
#        245862
#        255280
#        265677
#        276767
#        286537
#        296905
#        307280
#        318802
#        327890
#
# Disc length: 4548 seconds
#
# Revision: 0
# Processed by: cddbd v1.5.1PL0 Copyright (c) Steve Scherf et al.
# Submitted via: ExactAudioCopy v0.95a4
#
DISCID=b711c21e
DTITLE=Various Artist - The 'D' Singles Volume 5 - Disc 1
DYEAR=1900
DGENRE=Country
TTITLE0=Tex Wayne - My Empty Arms
TTITLE1=Tex Wayne - Where The Honky Tonk Fiddles Play
TTITLE2=Hershal Garflunkey - Parrott Song
TTITLE3=Hershal Garflunkey - Bad Luck
TTITLE4=Billy Jack Hale - Resting Place
TTITLE5=Billy Jack Hale - Black Widow
TTITLE6=Carlton Norris - Load Dem Wagons
TTITLE7=Carlton Norris - Go South Little Man
TTITLE8=Al Dean - I'll Win Again
TTITLE9=Al Dean - One Heartache From The Blues
TTITLE10=Jimmie Martin - World's Apart
TTITLE11=Jimmie Martin - Signifyin' Monkey
TTITLE12=Eddie Noack - It's Hard To Tell An Old Love Goodbye
TTITLE13=Eddie Noack - Love's Other Face
TTITLE14=Ernie Kucera - Rose Blossom Waltz
TTITLE15=Ernie Kucera - Lost Love Polka
TTITLE16=Harry Choates - Oh-Meon
TTITLE17=Harry Choates - Big Woods
TTITLE18=George Self - Those Pretty Words
TTITLE19=George Self - Forever You'll Be Mine
TTITLE20=Joyce Cornish - The Guy You Used To Be
TTITLE21=Joyce Cornish - My World Slows Down
TTITLE22=Dave Edge - Chained To A Love
TTITLE23=Dave Edge - Tears That I Wasted
TTITLE24=George Jones - Maybe Next Christmas
TTITLE25=George Jones - New Baby For Christmas
TTITLE26=Billy Parker - Dark As The Night
TTITLE27=Billy Parker - Out Of Your Heart
TTITLE28=Eddie Noack - The Same Old Mistakes
TTITLE29=Eddie Noack - You've Got A Woman
EXTD=
EXTT0=
EXTT1=
EXTT2=
EXTT3=
EXTT4=
EXTT5=
EXTT6=
EXTT7=
EXTT8=
EXTT9=
EXTT10=
EXTT11=
EXTT12=
EXTT13=
EXTT14=
EXTT15=
EXTT16=
EXTT17=
EXTT18=
EXTT19=
EXTT20=
EXTT21=
EXTT22=
EXTT23=
EXTT24=
EXTT25=
EXTT26=
EXTT27=
EXTT28=
EXTT29=
PLAYORDER=
